<svg width="800" height="600" viewBox="-400 -400 800 800" xmlns="http://www.w3.org/2000/svg" style="background-color: white;">
    <defs>
        <g id="dodecagon">
            <polygon points="25,0 21.65,12.5 12.5,21.65 0,25 -12.5,21.65 -21.65,12.5 -25,0 -21.65,-12.5 -12.5,-21.65 0,-25 12.5,-21.65 21.65,-12.5" fill="none" stroke="black" />
            <line x1="25" y1="0" x2="-25" y2="0" stroke="black" />
            <line x1="21.65" y1="12.5" x2="-21.65" y2="-12.5" stroke="black" />
            <line x1="12.5" y1="21.65" x2="-12.5" y2="-21.65" stroke="black" />
            <line x1="0" y1="25" x2="0" y2="-25" stroke="black" />
            <line x1="-12.5" y1="21.65" x2="12.5" y2="-21.65" stroke="black" />
            <line x1="-21.65" y1="12.5" x2="21.65" y2="-12.5" stroke="black" />
            <animateTransform attributeName="transform" type="rotate" from="0 0 0" to="360 0 0" dur="4s" repeatCount="indefinite" />
        </g>
        <polygon id="triangle_small" points="-17.5,0 17.5,0 0,120" />
        <polygon id="triangle_large" points="-35,0 35,0 0,240" />
        <rect id="beam" x="-75" y="-5" width="150" height="10" fill="red" />
    </defs>

    <g transform="translate(0, -100) scale(1, -1)">
        <g transform="translate(-250, 50) scale(1.5)">
            <use href="#triangle_small" fill="purple" transform="translate(0, -120)" />
            <g transform="translate(0, 0) rotate(-10)">
                <use href="#beam" />
                <use href="#dodecagon" transform="translate(-75, 0)" />
                <use href="#dodecagon" transform="translate(75, 0)" />
            </g>
        </g>

        <g transform="translate(250, 100) scale(1)">
            <use href="#triangle_small" fill="green" transform="translate(0, -120)" />
            <g transform="translate(0, 0) rotate(-10)">
                <use href="#beam" />
                <use href="#dodecagon" transform="translate(-75, 0)" />
                <use href="#dodecagon" transform="translate(75, 0)" />
            </g>
        </g>

        <g transform="translate(0, -150) scale(2)">
            <use href="#triangle_large" fill="blue" transform="translate(0, -240)" />
            <g transform="translate(0, 0) rotate(-10)">
                <use href="#beam" />
                <use href="#dodecagon" transform="translate(-75, 0)" />
                <use href="#dodecagon" transform="translate(75, 0)" />
            </g>
        </g>
    </g>
</svg>
